<mxfile host="app.diagrams.net" modified="2021-07-15T14:44:55.867Z" agent="5.0 (Windows NT 10.0; Win64; x64) AppleWebKit/537.36 (KHTML, like Gecko) Chrome/91.0.4472.124 Safari/537.36" etag="sOQj2DZuwvV1dBAp9OYL" version="14.8.6" type="github">
  <diagram id="ZamsyW06iMtIl-IfdBVD" name="Page-1">
    <mxGraphModel dx="1422" dy="762" grid="1" gridSize="10" guides="1" tooltips="1" connect="1" arrows="1" fold="1" page="1" pageScale="1" pageWidth="850" pageHeight="1100" math="0" shadow="0">
      <root>
        <mxCell id="0" />
        <mxCell id="1" parent="0" />
        <mxCell id="rohLjPD7Sopph-08Ycnb-2" value="" style="shape=image;verticalLabelPosition=bottom;labelBackgroundColor=#ffffff;verticalAlign=top;aspect=fixed;imageAspect=0;image=data:image/png,iVBORw0KGgoAAAANSUhEUgAAAgAAAAIACAYAAAD0eNT6AAAABGdBTUEAAK/INwWK6QAAABl0RVh0U29mdHdhcmUAQWRvYmUgSW1hZ2VSZWFkeXHJZTwAABkGSURBVHja7N1/qJX3fQfw53pFkEkEQ8glgo3FEEjQOBwlhqQtRcVMTSezuAXSazrqHyGlpaWhtqFjo61tQspKpWV2rd4GssjcXNLYiIaxNKGGMFvrJaFSWVzAYAgRTA2CcD37fHe+odbO1HvOuc+P87xe8OGkqbn38fOc5/t9n+95fox0Op0CAGiXWVoAAAIAACAAAAACAAAgAAAAAgAAIAAAAAIAACAAAAACAAAgAAAAAgAAIAAAAP2ZrQVUZWJiYjp/fE7UsqjbokajVlz2/x+Jmoo6GjUZdeFqf/D4+Lj+6Z/+IQBAjYxEbc61KmreVf5356IORe3JpX/6p39wGV8BUNeBd0P+JPXPUX8xjcG3yH92Y9STUcei1umf/ukfCADU2zVR/xr1dNStA/h5S6OeifqXaQ7i+qd/+ocAACW5Iepw/vQ0aJuifh41pn/6p38gAFAf1xbd701vmcHfkT6NHYyar3/6p38IAFC9dFb1kzM8+F46CD+pf/qnfwgAUP178P6ie5Z1WdZGbdE//dM/BACozp9Efa2C35t+51z90z/9QwCAat5/D0ZdX8HvXph/t/7pn/4hAEAF77+tFf7+rfqnf/qHAADlS7dWvbHC37+k6J6UpX/6p38IAFCi22uwDSv1T//0DwEAyrXUNuif/oEAQPuM2Qb90z8QAGifubZB//QPBAAAQAAAAAQAAEAAAAAEAABAAAAABAAAQAAAAAEAABAAAAABAAAQAAAAAQAAEAAAAAEAABAAAAABAAAQAAAAAQAAEAAAAAEAABAAAAABAAAQAAAAAQAAEAAAQAAAAAQAAEAAAAAEAABAAAAABAAAQAAAAAQAAEAAAAAEAABAAAAABAAAQAAAAAQAAEAAAAAEAABAAAAAAQAAaIuRTqejCwBgBQAAEAAAAAEAABAAAAABAAAQAAAAAQAAEAAAAAEAABAAAAABAAAQAAAAAQAAEAAAAAEAABAAAEAA0AIAEAAAgBaYrQVcbmJiYn68LIlakV9TLbrkjyyPGtUpqI2pqKOX/O/Xo07kOpJfz9b5LzA+Pm4vCgBUMOEvjpd1UXdGrbxssgfqbzQH9ves+H/+TAoFh6NejNof9Zq2CQC0c9JPn+rvi7o3f8IHhtuiXJujvpsDwONRT0Qd1x4BgOGe9BfkCf/e/EkfaK+08vfVXC/nMLAn6i2tEQAYnol/Ybx8KepvoubqCHCZD+V6JOqHUd+MOqUtAgDNnfgX54l/S9QcHQH+iPQB4cGorVG7cxBwroAAQIMm/nnx8ndRny2crQ9M35wcAtKq4Xei/jbqnLYMF/cBGL7JP53g8+uoz5v8gT6N5rEkjSmbtcMKAPWc+NPZvf8UtVo3gAFL5xE9mVcF7i+6lxRiBYAaTP73xMsxkz8wwz6Wx5p7tMIKANVO/Ol7uu1Fd4kOoAzpTqFPRX07alvUBS2xAkC5k/9YvPynyR+oSBp7Xoga0woBgPIm/8X5wHMzH6BK6d4BPy+6NxVCAGCGJ//l+YBz+16gDhbnMWm5VggAzNzkf2dhyQ2on7E8Nt2pFQIAM/PJ/5moeboB1NC8PEZZCRAAGODkn5b7Dxbds28B6mp+Hqt8RSkAMIDJ/7p4eTbqOt0AGsCYJQAwgMk/Xef/lDQNNEwas9LXAR5CJgDQo/RoTpf6AU2ULhF8TBsEAKb/6T/davOzOgE0WHq0sNsGCwBMY/JP19Xu0glgCKSxzI2CBACmccAs0AZgCCzwgUYA4Oo+/afHbX5EJ4Ahksa0rdogAHDlyT8l5e06AQyh7YWVTQGAK/qaAwQYUgvyGIcAwGWf/tNJMpbIgGGWxjj3NREAuMxXoka1ARhiaYz7kjYIAPzu0/+ieLlPJ4AWSGPdIm0QAOj6fOGWmUA7zMljHgJA6z/9pwdm+O4faJM05nlYkADQemk5bK42AC0yt/C1pwCAT/+AsY/yzdaC6kxMTKyIl5sb/tc4G3Uo12tRZ6KOjo+PT9nDMLCxIp09v7zoXkufLhlenWt+g/9aaexLY+ARe1gAaKNNDd3uU1H7ovanid9kDzMrH2OXTpQ7cyhIIWBd1MaohQ0dAwWAiox0Oh1dqC7V/3fRrKdkTUZ9MwajJ+w9qN14cm/RvcZ+aYM2O60afjCHHDtRAGjNwZqug/2fhmzuW1EPxQG6256D2o8t6eS6x4rmnGX/gajXBYDyOQmwOusasp17o24y+UMzxLH6eDpm87FrLOSKnANQnbo/8vdC1BdiMNlhV0HjQkA6OfcTExMTD+bVgDrfaCyNhd+316wAtMmdNd62c1HrTf7Q+CCQjuH1+Zg2FiIAVC3f/a+uZ+ymgWJNDByH7CkYihCQjuU1NQ4BaSwcs6cEgLao61m6adn/4zFgHLaLYKhCQDqmP56PcWMiAkCFbqnpdn0mBor/sHtgKENAOrY/U9PNu9keEgDaYkkNt2lPDBA77RoY6hCQjvE9xkQEgOrU7eY/6fa9D9gt0ArpWH/LmIgAUI26nQCYlv7P2C3QilWAdKx/zpiIAFCNBTXalkm39oXWhYB0zB+t0SZdZ68IAAJA+f7e7oBW+nqNtmW+3SEAtMVoTbYjPYhjn90BrbQvjwHGRAGAEs2ryXY84VG+0E752H/cmCgA0E57tABaba8WCAC0T3r85qQ2QKtXAdIY8LpOCAC0y/NaABgLBADa52UtAIwFAgDtc0ILAGOBAICDHjAWIADQAm9pARBOa4EAQIuMj4+f1QUgxoJzuiAAAAACAAAgAAAAAgAAIAAAAAIAACAAAAACAABQrdm9/EcTExPT+eNLo1bm17GouQ3rUWd8fHyDt0o5Lj4wMhov90Rtiro5annUqM7QQFNRR6OOR+2NenrW9zpT2lKOmKeejZeRhm32+aJ7Z8b0mOaXoo6lYTHX+4p5qpwAcBXSJP9g1NaoJU2fkxxKpU3+acL/cdSHdIMhkILrilz3Rr0c7/FPRgg4rjWlWFM0f5X7ZNTOqB1R7w56PpqJ5myJ+k3UI0Mw+VPe5P/5ePmlyZ8hlt7bv8zvdbgaN0Z9I8+pnyoGvBo6yAAwPyotueyKWmi/MY3JP4XFx4rmfT0E05Xe44/l9zxcreujfhB1IOraugWA9N3+C1Fr7SemOflvjpcv6gQt88X83ofpWBX1s6gb6hIA5kUdLLon+cF0Jv85+ZM/tNHX8jEA03FL1KGoa+oQAHaZ/OlROtPf10W01ZJ8DEAvIWB30edVDv0GgHXewPT5/gHHAEzfxqj1VQaA7fYBfVihBbTcSi2gzzm451WAfgJAOoHF0j/9GNMCWs5XYPTj1jwXVxIAoB/ztYCWcxIg/So9AKQ37Wp9B4BKreo1SPYaANLS/zx9B4BKpbl4WZkB4DY9B4BaKDUAeDobANRDT3NyrwHA5VsAUA89zcmz9A0A2kcAAAABAAAQAK7siNYBQC30NCf3GgCm9BsAaqGnObnXAHBMvwGgFn5VdgA4p+cAUKk0F0+WGQAuRD2n7wBQqUN5Ti4tACR79B0AKtXzXNxvAHhF7wGgEpNVBYBO1Db9B4BK9DUH93sjoGei9tkHAFCqvVH7qwwAaRVgS9Sr9gUAlCIt/d/f7w8ZxK2A34laLQQAQCmT/5piAJfiD+pZAG9EfbhwaSAAzJQDUXdFnR7EDxvkw4Dejlob9emoN+0nABiIU0V3yf/uqLOD+qGDfhpguh/xj6Juivpy1En7DQB6ciLqoTyn7h70D589Axt8Meq3Ud+KejRqWdTtUUujxqLmNmwHdLwHARrnp1EjDdvm80V3eT99z3+46PEWv1UGgEuDQKpf5AKAsmzQgvc3SwsAQAAAAAQAAEAAAAAEAABAAAAABAAAQAAAAAQAAEAAAAAEAABAAAAABAAAQAAAAAQAAEAAAAAEAABAAAAAAQAAEAAAAAEAABAAAAABAAAQAAAAAQAAEAAAAAEAABAAAAABAAAQAAAAAQAAEAAAAAEAABAAAAABAAAEAABAAAAABAAAQAAAAAQAAEAAAAAEAABAAAAABAAAQAAAAGbe7BJ+x9Kolfl1LGpuw3rUidrgrQLQKM9GjTRsm89HnY6ajHop6ljUxVyNCQBpkn8wamvUkoa/iS46jgAaZ03R/FXuk1E7o3ZEvTvo+WgmmrMl6jdRjwzB5A8AVbkx6ht5Tv1U1GhdA8D8orvksitqof0GAANxfdQPog5EXVu3AJC+238haq39BAAzYlXUz6JuqEsAmBd1sOie5AcAzJxbog5FXVOHALDL5A8ApYaA3UWfVzn0GwDWRW2yLwCgVBuj1lcZALbbBwBQie39rAL0EwA2F5b+AaAqt+a5uJIAAABUp/QAMCdqtb4DQKVW5Tm5tACQlv7n6TsAVCrNxcvKDAC36TkA1EKpAWBUvwGgFnqak3sNACv0GwBqoac5eZa+AUD7CAAAIAAAAALAlR3ROgCohZ7m5F4DwJR+A0At9DQn9xoAjuk3ANTCr8oOAOf0HAAqlebiyTIDwIWo5/QdACp1KM/JpQWAZI++A0Clep6L+w0Ar+g9AFRisqoA0Inapv8AUIm+5uB+bwT0TNQ++wAASrU3an+VASCtAmyJetW+AIBSpKX/+/v9IYO4FfA7UauFAAAoZfJfUwzgUvxBPQvgjagPFy4NBICZciDqrqjTg/hhg3wY0NtRa6M+HfWm/QQAA3Gq6C753x11dlA/dNBPA0z3I/5R1E1RX446ab8BQE9ORD2U59Tdg/7hs2dggy9G/TbqW1GPRi2Luj1qadRY1NyG7YCO9yBA4/w0aqRh23y+6C7vp+/5Dxc93uK3ygBwaRBI9YtcAFCWDVrw/mZpAQAIAACAAAAACAAAgAAAAAgAAIAAAAAIAACAAAAACAAAgAAAAAgAAIAAAAAIAACAAAAACAAAgAAAAAgAACAAAAACAAAgAAAAAgAAIAAAAAIAACAAAAACAAAgAAAAAgAAIAAAAAIAACAAAAACAAAgAAAAAgAAIAAAgAAAAAgAAIAAAAAIAACAAAAACAAAgAAAAAgAAIAAAAAIAADAzJtdwu9YGrUyv45FzW1YjzpRG7xVABrl2aiRhm3z+ajTUZNRL0Udi7qYqzEBIE3yD0ZtjVrS8DfRRccRQOOsKZq/yn0yamfUjqh3Bz0fzURztkT9JuqRIZj8AaAqN0Z9I8+pn4oarWsAmF90l1x2RS203wBgIK6P+kHUgahr6xYA0nf7L0SttZ8AYEasivpZ1A11CQDzog4W3ZP8AICZc0vUoahr6hAAdpn8AaDUELC76PMqh34DwLqoTfYFAJRqY9T6KgPAdvsAACqxvZ9VgH4CwObC0j8AVOXWPBdXEgAAgOqUHgDmRK3WdwCo1Ko8J5cWANLS/zx9B4BKpbl4WZkB4DY9B4BaKDUAjOo3ANRCT3NyrwFghX4DQC30NCfP0jcAaB8BAAAEAABAALiyI1oHALXQ05zcawCY0m8AqIWe5uReA8Ax/QaAWvhV2QHgnJ4DQKXSXDxZZgC4EPWcvgNApQ7lObm0AJDs0Xf6dFYL8OkN+tLzXNxvAHhF7+nDaS2g5U5pAX2YrCoAdKK26T99cDkpjgHoXV9zcL83Anomap99QI/2awGOAejJ3n7fP/0GgLQKsCXqVfuCHt/AJ7SBlnotHwMwXWnp//5+f8ggbgX8TtRqIYBpv/m+10lnrj6sE7TUtnwMwHQn/zXFAE4gHdSzAN6I+nDh0kCmHwLSCSzf1gla5tv5vQ/TcSDqrmJAJ1AP8mFAb0etjfp01Jv2E9PwUF4J8GmIYffeqtdDWsE0pKtF0pL/3cUAL58e9NMA0/2IfxR1U9SXo07ab1zFKsBU1NfjH5dFvawjDKn03v7T9F5P73nt4CqcyGExzam7B/3DZ8/ABl+M+m3Ut6IezYP67VFLo8ai5jZsB3S8B0sLAscvPjByR/zjxqhNUUuiVugMDZYu80sn+6Xl/n0m/lL9NGqkYdt8vugu76fv+Q8XPd7id0YDwPj4+NUGgVS/yAVXtRpQdM+MdnY00LOYpzbowh8Zb7UAAAQAAEAAAAAEAABAAAAABAAAQAAAAAQAAGpnYmJiji4IALTroJ+vC0CYpwUCAO2yQAuA4MOAAEDLLNICwFggANA+t2gBYCwQAGiflVoAhA9pgQBAu3xEC4DwMS0QAGiXRRMTE5b+oMViDLi5cA6AAEArbdYCaLV7tUAAoFznarId98UngFG7A1r56T8d+/cZEwUAyjVVk+1YHLXR7oBW2pjHAGOiAECJztRoW75qd0ArfaVG23LW7hAABIDyLZ2YmPA9ILRIPuaX12iT3rJXBIC2OFWz7fluDAhuDQztmPzTsf4PxkQEgGq8VrPtSQPC9+wWaIV0rF9Xs2163W4RANriRA23aXN8Mthq18BQf/pPx3gdL/89bu8IAG1R1zd7+irAXcFgOCf/dGx/15iIAFCtozXdrjlRT8VA4TkBMFyTfzqmn8rHeB1N2ksCQFukM17retLLvKiDMWCstptgaD75H8zHdh2lsfC0PSUAtMmLNd62NFA845wAaPzkn47hZ2s8+dd9LBxqs7WgMs8X9b4Xf1oq/McYQNJTAx8YHx93ow5ozsQ/v+ie7d+Ee3w8b49ZAWibAw3ZzjSA/DoGlPvsMmjE5J+O1V8XzXnQzwF7zQpA26R7AaRrX5vwKM6xqB/HwPLZeP36+Pj4PrsPajfxp3v7p9v7rmjQZr9e1O++KAIApdgT9cUGbW8aWP4tBpp00k4KAfujDkUg8CAPKH/CT0/zSyfrriu6D/ZZ2NAxkIqMdDodXSj/wL10Qv2vhv910rkBh3KlJH8mAsERexkGPm6k8SLdtXNxnvhTzW/4X+vPov5vvIhxw062AtAq6Y2fboBxc4P/DmkA2pTr8oADcCXH35v8qYaTAKu3UwsAYx8CQPs8HnVeG4AWOZ/HPgSAVkt3BfyhNgAt8sM89iEAtN6jURe0AWiBC3nMQwCg6F4LazkMaIPH85iHAED2zSjX0wPDbMqnfwGAP3SicFYsMNzSGHdcGwQA/tDDUWe0ARhCZ/IYhwDAFQ6QbdoADKFtPuAIALy/tETm+djAMHmx8BWnAMBV+WTRvcc+QNOdzWMaAgBX4TUHDDAk7i888lcAYFqejtqhDUCDpTFsnzYIAEzfFwpPywKa6WgewxAA6EG6ZebHi+49AgCaIo1Z6wu3OBcA6MupqLsLD84AmuGtPGad0goBgMGlaVcGAHV2No9VVi0FAAbo5aL7dcA5rQBq6Fweo17WCgGAwXs+6qNRp7UCqJHTeWx6XisEAGZOuirgrsJ1tUA9vJbHJFcsCQCUIH2/dkdhqQ2o/gPJHYXv/AUASvXektturQAq8Hj+5O8rSQGACpwvurfZTOXkQKAM5/KY88k8BiEAUKG0CrCscAIOMLNezGPNbq0QAKiPdCLOR6MeKNwvABiss3lscQKyAECNfT/qg/l1SjuAPkxdNqYgAFBzZ3Jav7XoLtW5Hzcw3Yl/dx5DHshjCgIADXK86J6sk9J7eiynE3aA93M+jxUfyGPHcS0RAGi29FCOz+SD+nOFG3YAv+9IHhs+kMcKD/Jpgdla0CrpKV3fyXVz1H1R90Yt1hponXQy3xNF93p+n/QFAFokHfAP50oBYF3UR6JWRi3UHhg66VP94aJ7Kd/ThbP5BQAtIA8EO3IlC6KWRC3Pr6kW5f9vNP97oF6OFr+78uf1ont73hP536dXJ/Lxe0Y6nY4uAEDLOAkQAAQAAEAAAAAEAABAAAAABAAAQAAAAAQAAEAAAAAEAABAAAAABAAAQAAAAAQAAEAAAAAEAABAAAAABAAAEAAAgJaYrQVUZWJi4ifx8ucVb8bBqLsb2kL9G4L+jY+P3200QACgbUaK6lehRvRP//SPNvIVAAAIAACAAAAACAAAgAAAAAgAAIAAAAAIAACAAAAACAAAgAAAAAgAAIAAAAAIAACAAAAACAAAgAAAAAgAACAAAAACAAAgAAAAAgAAIAAAAAIAACAAAAACAAAgAAAAAgAAIAAAAAIAACAAAAACAAAgAAAAAgAAIAAAgAAAAAgAAIAAAAAIAACAAAAACAAAgAAAAAgAAIAAQKudtw36p38gANA+p22D/ukfCAC0z6Rt0D/9AwGA9jlcg214Sf/0T/8QAKD8Tz8nKvz9J6OO6Z/+6R8CAJRvZ8W/+6L+6Z/+IQBA+XZEnarg976Zf/dF/dM//UMAgPKly6AeruD3pt/5rv7pn/4hAEB1dkcdKPH3PRe1a4g+femf/oEAQGP9VVHOJVGv5t81pX/6p38IAFC9s1FrZngQToPv6qi39U//9A8BAOoj3RXtjqi9M/Cz90WtjHpD//RP/0AAoH7ORX0iav2APo29EnVP1F9GvaN/+qd/IABQb/ujlhXd70v35YF5OoP4v0f9ddTSqJ9EdfRP//QPfme2FlBze3LNyYPpbVGjUSsu+3NHiu6JVcdyXdA6/dM/uLKRTkcwBYC28RUAAAgAAIAAAAAIAACAAAAACAAAgAAAAAgAAIAAAAAIAACAAAAACAAAwGD9rwADAL9IpXJ72717AAAAAElFTkSuQmCC;" vertex="1" parent="1">
          <mxGeometry x="550" y="130" width="230" height="230" as="geometry" />
        </mxCell>
        <mxCell id="rohLjPD7Sopph-08Ycnb-3" value="" style="shape=image;imageAspect=0;aspect=fixed;verticalLabelPosition=bottom;verticalAlign=top;image=data:image/png,iVBORw0KGgoAAAANSUhEUgAAAgAAAAIACAYAAAD0eNT6AAAABGdBTUEAAK/INwWK6QAAABl0RVh0U29mdHdhcmUAQWRvYmUgSW1hZ2VSZWFkeXHJZTwAAA3WSURBVHja7N1vyJ1lHcDx67SnlWRNpmFlTRfS+kMhFIFCKEEvQksW0nA5T75I5BFTCsPh6k0U/aFYbKwMBjstDd8kSpHMV4NBIAmD3vjAYDAYDKSHFovBYJ1+V/c1SmWy5eM5931+nw9cDOrNea7j9Tvf5zz3uc9oOp0WACCXt9kCABAAAIAAAAAEAAAgAAAAAQAACAAAQAAAAAIAABAAAIAAAAAEAAAgAAAAAQAACAAAQAAAAAIAABAAACAAAAABAAAIAABAAAAAAgAAEAAAgAAAAAQAACAAAAABAAAIAABAAAAAAgAAEAAAgAAAAAQAACAAAEAAAAACAAAQAACAAAAABAAAIAAAAAEAAAgAAEAAAAACAAAQAACAAAAABAAAIAAAAAEAAAgAAEAAAIAAAAAEAAAgAAAAAQAACAAAQAAAAAIAABAAAIAAAAAEAAAgAAAAAQAACAAAQAAAAAIAABAAAIAAAAABAAAIAABAAAAAAgAAEAAAgAAAAAQAACAAAAABAAAIAABAAAAAAgAAEAAAgAAAAAQAACAAAAABAAACwBYAgAAAAAQAACAAAAABAAAIAABAAAAAAgAAEAAAgAAAAAQAACAAAAABAAAIAABAAAAAAgAAEAAAgAAAAAEAAAgAAEAAAAACAAAQAACAAAAABAAAIAAAAAEAAAgAAEAAAAACAAAQAACAAAAABAAAIAAAAAEAAAIAABAAAIAAAAAEAAAgAAAAAQAACAAAQAAAAAIAABAAAIAAAAAEAAAgAAAAAQAACAAAQAAAAAIAAAQAACAAAAABAAAIAABAAAAAAgAAEAAAgAAAAAQAACAAAAABAAAIAABAAAAAAgAAEAAAgAAAAAQAAAgAAEAAAAACAABYOEu2gHn51/JoOtf63Tcd+bn8XIv6c4F3AAAAAQAACAAAEAAAgAAAAAQAACAAAAABAAAIAABAAAAAAgAAEAAAgAAAAAQAACAAAAABAAAIAABAAAAAAgAAEAAAIAAAAAEAAAgAAEAAAAACAAAQAACAAAAABAAAIAAAAAEAAAgAAEAAAAACAAAQAACAAAAABAAAIAAAQAAAAAIAABAAAIAAAAAEAAAgAAAAAQAACAAAQAAAAAIAABAAAIAAAAAEAAAgAAAAAQAACAAAQAAAgAAAAAQAACAAAAABAAAIAABggJZswfBMJpOr45+/9eGxjMdjTwiYBWaBdwCYka/ZAsAsQADksxzrbs8fmAVmAQIgly2xnoq1M9a7bAeYBWYBAiBf/X/JNoBZYBYgAHL5QKyfx3os1jW2A8wCswABkMf7Y/0w1l22AswCs4BL5WOAi+ORWOdiPR3rn7YDzAKzAO8ALL5R6S4G2h/rm55XMAvMAgRAPt+I9VXbAGaBWYAAyGVzrCdi7Yq10XaAWWAWIADyeE+s7xQfCwKzwCzgIlwEuLje3cq//vvbWH+3JWAWmAV4ByCHG2PtifV1WwFmgVmAAMjngVjbbAOYBWYBAiCX+rGgJ2N9t3RvAwJmgVkgAEhiXawHY91hK8AsMAsQALlcG+vHsR6NdbXtALPALBAA5PGhWD8pbhACZoFZIABIZxrroVj3xHqH7QCzwCwQAORQ7xf+sVgHY30r1tttCZgFZoEAIJf7Y33FNoBZYBYIAHK5IdbeWI8XFwOBWWAWCABSuaYd+i/bCjALzIIcfBcAF1wR67FY62P9LtY/bAmYBWaBdwDI4SOxflW67xEHzAKzQACQTL0YyGeDAbNAAJCw/ielu1/4VbYDzAKzQACQxztjPVzcLxzMArNAAJBO/SjQ90t3g5CNtgPMArNAAJDHDbF+Fmu7rQCzwCwQAOTzYDv462wFmAVmgQAgj4/GerJ0nw++wnaAWWAWCAByeSDWnbYBzAKzQACQywdj7Y61s3S3DQXMArNAAJDEtaW7InirrQCzwCwQAOT7b2e3bQCzwCwQAOQyinXINoBZYBYIAHI5ULztB5gFAoB0B/4+2wBmgVkgAHDgAbMAAYADD5gFCAAceMAsQADgwANmAQIABx4wCxAAOPCAWYAAwIEHzAIEAA48YBYgAHDgAbMAAYADD5gFCAAceMAsQADgwANmAQIABx4wCwQADjxgFiAAcOABswABgAMPmAUIABx4wCxAAODAA2YBAgAHHjALEAA48IBZgADAgQfMAgQADjxgFiAAcOABswABgAMPmAUIABx4wCxAAODAA2YBAsCBd+ABswAB4MADZgEIAAceMAtAADjwgFmAAMCBB8wCBAAOPGAWsNiWbMHwjMdjBx4wC/AOAAAgAAAAAQAACAAAQAAAgAAAAAQAACAAAAABAAAIAABAAAAAAgAA6BFfBjQHk8lkOu/HMB6PR54JwEzyDgAAIAAAAAEAAAgAAEAAAAACAAAQAACAAAAABAAAIAAAAAEAAAgAAEAAAAACAAAQAACAAAAABAAACAAAQAAAAAIAABAAAIAAAAAEAAAgAAAAAQAACAAAQAAAAAIAABAAAIAAAAAEAAAgAAAAAQAACAAAEAAAgAAAAAQAACAAAAABAAAIAABAAAAAAgAAEAAAgAAAAAQAACAAAAABAAAIAADg8izZAuZWn/umIz+Xn8vPBd4BAAAEAAAgAAAAAQAACAAAQAAAAAIAABAAAHQmk8l6uyAAyHXoN9gFIFxpCwQAuWy0BUDwy4AAIJlNtgAwCwQA+XzcFgBmgQAgn5ttARA+awsEALncaguA8HlbIADIZdNkMvHWHyQWM2BLcQ2AACClbbYAUttuCwQAs3WmJ49jR/wGsM7TASl/+69nf4eZKACYrfM9eRybY231dEBKW9sMMBMFADO02qPH8j1PB6T0eI8ey2lPhwAQALP3yclk4u+AkEg78zf16CG94lkRAFmc7Nnj2RMDwa2BIceLfz3ru81EBMB8HO/Z46kDYZ+nBVKoZ/29PXtMJzwtAiCLYz18TNviN4P7PTWw0L/91zPex4//rnh2BEAWff2Pvf4pwF3BYDFf/OvZ3mMmIgDm62hPH9f6WM/GoPA9AbBYL/71TD/bzngf/dWzJACyqFe89vWilytjHYqB8QVPEyzMb/6H2tnuozoLT3mmBEAmR3r82Oqg+INrAmDwL/71DP+pxy/+fZ+FC23JFszN4dLve/HXtwqfiAFSvzVweTweu1EHDOeFf0PprvYfwj0+DnvGvAOQzfMDeZx1gLwcA2WHpwwG8eJfz+rLZThf9PO8Z807ANnUewHUz74O4as43xfrNzFYHo5/fzAej5/x9EHvXvjrvf3r7X0/PaCHfaL0774oAoCZeDrWowN6vHWw/D4GTb1op0bAH2O9EEHgizxg9i/49dv86sW6t5fui32uG+gMZE5G0+nULsz+4P7vC+pfBv7j1GsDXmirlvxqBMFLnmVY87lR50W9a+fm9sJf14aB/1ififWfeRFzw5PsHYBU6n/49QYYWwb8M9QBdFdbrw0cgItZufDiz3y4CHD+fm0LALMPAZDPwVhnbQOQyNk2+xAAqdW7Au63DUAi+9vsQwCk99NY52wDkMC5NvMQAJTus7DeDgMyONhmHgKA5kexfJ4eWGTn/fYvAHi9Y8VVscBiqzNuxTYIAF5vV6xV2wAsoNU24xAAXOSA7LQNwALa6RccAcAbq2+R+X5sYJEcKf7EKQC4JPeW7h77AEN3us00BACX4LgDAyyI+4qv/BUAXJbnYu21DcCA1Rn2jG0QAFy+bxfflgUM09E2wxAA/B/qLTPvLN09AgCGos6sO4pbnAsA3pSTsb5YfHEGMAyvtJl10lYIANaupn0yAOiz021WeddSALCGXizdnwPO2Aqgh860GfWirRAArL3DsW6LdcpWAD1yqs2mw7ZCAPDWqZ8K+FzxuVqgH463meQTSwKAGah/X7uleKsNmP8vJLcUf/MXAMzUhbfcDtgKYA4Ott/8/UlSADAHZ0t3m826XBwIzMKZNnPubTMIAcAc1XcBPlVcgAO8tY60WXPAVggA+qNeiHNbrOXifgHA2jrdZosLkAUAPfbLWB9u/563HcCbcP41MwUBQM+ttlr/ROneqnM/buByX/gPtBmy3GYKAoABWSndxTq13uvXcrpgB3gjZ9usuL7NjhVbIgAYtvqlHA+1Q/1IccMO4NVearPh+jYrfJFPAku2IJX6LV2/aGtLrB2xtsfabGsgnXox31Ol+zy/3/QFAInUA7+rrRoAt8e6NdbNsa6zPbBw6m/1fy7dR/meK67mFwC2gDYI9rZVbYx1Y6yb2r91bWr/37r2vwP9crT895M/J0p3e95j7X+v/7qQj1cZTadTuwAAybgIEAAEAAAgAAAAAQAACAAAQAAAAAIAABAAAIAAAAAEAAAgAAAAAQAACAAAQAAAAAIAABAAAIAAAAAEAAAIAABAAAAAAgAAEAAAgAAAAAQAACAAAAABAAAIAABAAAAAAgAAEAAAgAAAAAQAACAAAAABAAAIAAAQAACAAAAABAAAIAAAAAEAAAgAAEAAAAACAAAQAACAAAAABAAAIAAAAAEAAAgAAEAAAAACAAAQAAAgAAAAAQAACAAAQAAAAAIAABAAAIAAAAAEAAAgAAAAAQAACAAAQAAAAAIAABAAAIAAAAAEAAAgAABAAAAAAgAAEAAAgAAAAAQAACAAAAABAAAIAABAAAAAAgAAEAAAgAAAAAQAACAAAAABAAAIAABAAAAAAgAABAAAIAAAAAEAAAgAAEAAAABD8W8BBgBDx9kWx0auLgAAAABJRU5ErkJggg==;" vertex="1" parent="1">
          <mxGeometry x="90" y="130" width="230" height="230" as="geometry" />
        </mxCell>
        <mxCell id="rohLjPD7Sopph-08Ycnb-4" value="" style="shape=image;imageAspect=0;aspect=fixed;verticalLabelPosition=bottom;verticalAlign=top;image=data:image/png,iVBORw0KGgoAAAANSUhEUgAAAgAAAAIACAYAAAD0eNT6AAAABGdBTUEAAK/INwWK6QAAABl0RVh0U29mdHdhcmUAQWRvYmUgSW1hZ2VSZWFkeXHJZTwAAAvTSURBVHja7N1LqFV1H8fhtdUukl1QIe0CBtKFspImRhAESkJlCFJYwdaBHku7EFRKl0FBYVkkBZZReqgTOSgnRiBBg8SahCnUoAY1kC6DQxe7Yenq92/vgWDpObbXOXut//PA720SvO4v72Z93n0utsqyLACAvEwwAQAIAABAAAAAAgAAEAAAgAAAAAQAACAAAAABAAAIAABAAAAAAgAAEAAAgAAAAAQAACAAAAABAAAIAAAQAACAAAAABAAAIAAAAAEAAAgAAEAAAAACAAAQAACAAAAABAAAIAAAAAEAAAgAAEAAAAACAAAQAAAgAAAAAQAACAAAQAAAAAIAABAAAIAAAAAEAAAgAAAAAQAACAAAQAAAAAIAABAAAIAAAAAEAAAgAABAAAAAAgAAEAAAgAAAAAQAACAAAAABAAAIAABAAAAAAgAAEAAAgAAAAAQAACAAAAABAAAIAABAAACAAAAABAAAIAAAAAEAAAgAAEAAAAACAAAQAACAAAAABAAAIAAAAAEAAAgAAEAAAAACAAAQAACAAAAAAWACABAAAIAAAAAEAAAgAAAAAQAACAAAQAAAAAIAABAAAIAAAAAEAAAgAAAAAQAACAAAQAAAAAIAABAAACAAAAABAAAIAABAAAAAAgAAEAAAgAAAAAQAACAAAAABAAAIAABAAAAAAgAAEAAAgAAAAAQAACAAAEAAAAACAAAQAACAAAAABAAAIAAAAAEAAAgAAEAAAAACAAAQAACAAAAABAAAIAAAAAEAAAgAAEAAAIAAAAAEAAAgAAAAAQAACAAAQAAAAAIAABAAAIAAAAAEAAAgAAAAAQAACAAAQAAAAAIAABAAAIAAAAABAAAIAABAAAAAAgAAEAAAgAAAAAQAACAAAAABAAAIAABAAAAAAgAAEAAAgAAAAAQAACAAAAABAAACwAQAIAAAAAEAAAgAAEAAAAACAAAQAACAAAAABAAAIAAAAAEAAAgAAEAAAAACAAAQAACAAAAABAAAIAAAQAAAAAIAABAAAIAAAAAEAAAgAAAAAQAACAAAQAAAAAIAABAAAIAAAAAEAAAgAAAAAQAACAAAQAAAgAAAAAQAACAAAAABAAAIAABAAAAAAgAAEAAAgAAAAAQAACAAAIAKTDIBAD23a/Px/52hgWnxn8N98efdVPoEAADGyO0mEAAA5OeuuKWeRQIAgLxcFPdm3Lq408whAADI75OAm8wgAADIyzlxz8WtjZtuDgEAQD5mxj0Zt8QUY8OPAQLQT+6LOxi3Le5Xc/gEAIDmaxWdbwx8Ne4ezygBAEB+VsTdYgYBAEBeLoh7Oe6RuKnmEAAA5OOMuAcLPyJYCd8ECEA/O737KUD65xtxP5rEJwAA5GF23Atxy0whAADIz6q4W80gAADIS/oRwaG4R4vOlwQQAABkYmLc6rgbTSEAAMjL2XHr4x6Im2YOAQBAPs6Pe7rwy4IEAADZKePujrsj7hRzjE6WvwdgcHBwNP/6nLiru/+cUYzPN560uv9DPxC3P25P3MftdvuLeC0T4p+H7WxnO9u5CTufwGu8JO717icCG+L+9Ggf4XhlWQqAo02OWxO3suj8/Gk/OhS3L25j93/8ZbyhSzvb2c527oudd20+/r8zNNDL/+6v49YWnb9FcPQ25fcs9CWAoy2L+7LofG1pdh//OdN3ws6N2xK3N26hne1sZzs3fOdjmRX3YtzDhW8MFACjdGbce903xrk1+nOnj8Aui9se/w/llbiWne1sZzs3bOeRmt4NgEUeaQJgpNLX6D6seQ2nb4BZHrcj3swn2dnOdrZzQ3YerfSlmPSlgIGi85cJIQD+05S4nUXnm3XqLn28d33c23a2s53t3ICdT9SFcS/FrfCIEwDHsqUhb+Ij38zzo+Y32NnOdrZzzXf+v9I3ZPo9AQLgX90Qt6SBryt9BLY03sxz7WxnO9u5pjv36pOA9OMb6e8OOMsjXwAc6akGv7b0qzIfs7Od7Wznmu7cK6fG3Vv4uwMEwBHSXyk5p8GvL32kNy9q/ho729nOdq7Zzr2Wfizwibj746Z69AuAHP5O6fQjSovtbGc727lmO1dhVtyzcbd59OcdACfHLcjgdaav6V1nZzvb2c412rlqq7sRMFEA5Cl9hDclk9c6bXBwcKad7WxnO9dk56pdHDdUdH5XwGQBkJ8rMnqt6RtgLrWzne1s55rsPFZWxd0sAPKT00c/rXF8vXa2s53t3K/Oi3s+bl3R+RXCAiATV2X0WtNHXFfa2c52tnNNdh5L6cce008HLC4y5DcBApCzCd1PAgQAAGQkfbljpwAAgLxsLXwJICufZPRaf4/71M52trOda7LzWD/8l+daPrkGwKGMXms5jq/Xzna2s509/AVAX9mX0Wv9I+4zO9vZznauyc4e/gKg8jfyL5m81uF2u/2tne1sZzvXZGcPfwFQqYNx72fwOtPX8T6ws53tbOca7ezhLwAqty2D1/hT3Dt2trOd7VyznT38BUDlb+Qmf40rfQPP7na7vdvOdraznWu2s4e/AKhU+i7XdQ1+fd/FPW5nO9vZzjXc2cNfAFRuR9z2Br6u3+KGouL32tnOdrZzTXf28BcAldf8srjPG/Sa0kd4O+NN/JCd7WxnO9d4Zw9/AVC5n+MWNOTNnN7E78YtsbOd7WznBuzs4V+hSSb4xzdx18a9FTe/pq8h/eKOrVHwd9rZzna2c4N29vD3CUDlhuMWxq2I+75Gf+7DRed3di+qyZvYzna2s509/H0C0HfSR2GvFZ0f9VkTtzJuVp/+Wf+K2xO3Md7AQ3a2s53t3PCdPfwFwJiU8YG49XHPxF0eNy9uTtyMuMnj+Gf7IW5/9w38UbyBv7Kzne1s54x29vDvoVZZllYAoLd2bT7+vzM00IsHUG8e/pvyexb6HgAA/D//DAkAADz8BQAAePgLAADw8BcAAODhLwAAwMNfAACAh78AAAAPfwEAAB7+AgAAPPwFAAB4+AsAADz8EQAAePgjAADw8EcAAODhjwAAwMMfAQCAhz9Ha5VlaQUA8AkAACAAAAABAAAIAABAAAAAAgAAEAAAgAAAAAQAACAAAAABAAAIAABAAAAAAgAAEAAAgAAAAAFgAgAQAACAAAAABAAAIAAAAAEAAAgAAEAAAAACAAAQAACAAAAABAAAIAAAAAEAAAgAAEAAAAACAAAQAAAgAAAAAQAACAAAQAAAAAIAABAAAIAAAAAEAAAgAAAAAQAACAAAQAAAAAIAABAAAIAAAAAEAAAgAABAAAAAAgAAEAAAgAAAAAQAACAAAAABAAAIAABAAAAAAgAAEAAAgAAAAAQAACAAAAABAAAIAABAAACAAAAABAAAIAAAAAEAAAgAAEAAAAACAAAQAACAAAAABAAAIAAAAAEAAAgAAEAAAAACAAAQAACAAAAAAQAACAAAQAAAAAIAABAAAIAAAAAEAAAgAAAAAQAACAAAQAAAAAIAABAAAIAAAAAEAAAgAAAAAQAAAsAEACAAAAABAAAIAABAAAAAAgAAEAAAgAAAAAQAACAAAAABAAAIAABAAAAAAgAAEAAAgAAAAAQAACAAAEAAAAACAAAQAACAAAAABAAAIAAAAAEAAAgAAEAAAAACAAAQAACAAAAABAAAIAAAAAEAAAgAAEAAAIAAAAAEAAAgAAAAAQAACAAAQAAAAAIAABAAAIAAAAAEAAAgAAAAAQAACAAAQAAAAAIAABAAAIAAAAABAAAIAABAAAAAAgAAEAAAgAAAAAQAACAAAAABAAAIAABAAAAAAgAAEAAAgAAAAAQAACAAAAABAAACAAAQAACAAAAABAAAIAAAAAEAAAgAAEAAAAACAAAQAACAAAAABAAAIAAAAAEAAAgAAEAAAAACAAAEgAkAQAAAAAIAABAAAIAAAAAEAAAgAAAAAQAACAAAQAAAAAIAABAAAIAAAAAEAAAgAAAAAQAACAAAQAAAgAAAAAQAACAAAAABAAAIAABAAAAAAgAAEAAAgAAAAAQAACAAAAABAAAIAABAAAAAI/C3AAMAvQJVZb6TxBEAAAAASUVORK5CYII=;" vertex="1" parent="1">
          <mxGeometry x="300" y="130" width="230" height="230" as="geometry" />
        </mxCell>
      </root>
    </mxGraphModel>
  </diagram>
</mxfile>
